HIERARCHY
ROOT Hips
{
	OFFSET -14.64140 90.27770 -84.91600
	CHANNELS 6 Xposition Yposition Zposition Zrotation Xrotation Yrotation
	JOINT Spine
	{
		OFFSET 0.00000 13.20850 -1.60436
		CHANNELS 3 Zrotation Xrotation Yrotation
		JOINT Spine1
		{
			OFFSET 0.00000 8.61716 0.00000
			CHANNELS 3 Zrotation Xrotation Yrotation
			JOINT Spine2
			{
				OFFSET 0.00000 8.61717 0.00000
				CHANNELS 3 Zrotation Xrotation Yrotation
				JOINT Spine3
				{
					OFFSET 0.00000 8.61717 0.00000
					CHANNELS 3 Zrotation Xrotation Yrotation
					JOINT Neck
					{
						OFFSET 0.00000 11.07920 1.10792
						CHANNELS 3 Zrotation Xrotation Yrotation
						JOINT Neck1
						{
							OFFSET 0.00000 7.08032 0.00000
							CHANNELS 3 Zrotation Xrotation Yrotation
							JOINT Head
							{
								OFFSET 0.00000 7.08031 0.00000
								CHANNELS 3 Zrotation Xrotation Yrotation
								End site
								{
									OFFSET 0.00000 0.00000 0.00000
								}
							}
						}
					}
					JOINT RightShoulder
					{
						OFFSET -0.01000 7.91373 5.19711
						CHANNELS 3 Zrotation Xrotation Yrotation
						JOINT RightArm
						{
							OFFSET -18.41580 0.00000 0.00000
							CHANNELS 3 Zrotation Xrotation Yrotation
							JOINT RightForeArm
							{
								OFFSET -29.11090 0.00000 0.00000
								CHANNELS 3 Zrotation Xrotation Yrotation
								JOINT RightHand
								{
									OFFSET -24.65040 0.00000 0.00000
									CHANNELS 3 Zrotation Xrotation Yrotation
									JOINT RightHandThumb1
									{
										OFFSET -5.35114 -0.85590 3.97906
										CHANNELS 3 Zrotation Xrotation Yrotation
										JOINT RightHandThumb2
										{
											OFFSET -4.52789 0.00000 0.00000
											CHANNELS 3 Zrotation Xrotation Yrotation
											JOINT RightHandThumb3
											{
												OFFSET -2.46976 0.00000 0.00000
												CHANNELS 3 Zrotation Xrotation Yrotation
												End site
												{
													OFFSET 0.00000 0.00000 0.00000
												}
											}
										}
									}
									JOINT RightHandIndex1
									{
										OFFSET -14.26970 0.00000 2.88139
										CHANNELS 3 Zrotation Xrotation Yrotation
										JOINT RightHandIndex2
										{
											OFFSET -5.48836 0.00000 0.00000
											CHANNELS 3 Zrotation Xrotation Yrotation
											JOINT RightHandIndex3
											{
												OFFSET -3.01859 0.00000 0.00000
												CHANNELS 3 Zrotation Xrotation Yrotation
												End site
												{
													OFFSET 0.00000 0.00000 0.00000
												}
											}
										}
									}
									JOINT RightHandMiddle1
									{
										OFFSET -14.26970 0.00000 -0.09147
										CHANNELS 3 Zrotation Xrotation Yrotation
										JOINT RightHandMiddle2
										{
											OFFSET -6.17441 0.00000 0.00000
											CHANNELS 3 Zrotation Xrotation Yrotation
											JOINT RightHandMiddle3
											{
												OFFSET -3.56743 0.00000 0.00000
												CHANNELS 3 Zrotation Xrotation Yrotation
												End site
												{
													OFFSET 0.00000 0.00000 0.00000
												}
											}
										}
									}
									JOINT RightHandRing1
									{
										OFFSET -12.69180 0.00000 -3.06433
										CHANNELS 3 Zrotation Xrotation Yrotation
										JOINT RightHandRing2
										{
											OFFSET -5.62556 0.00000 0.00000
											CHANNELS 3 Zrotation Xrotation Yrotation
											JOINT RightHandRing3
											{
												OFFSET -3.56744 0.00000 0.00000
												CHANNELS 3 Zrotation Xrotation Yrotation
												End site
												{
													OFFSET 0.00000 0.00000 0.00000
												}
											}
										}
									}
									JOINT RightHandPinky1
									{
										OFFSET -11.11390 0.00000 -6.03719
										CHANNELS 3 Zrotation Xrotation Yrotation
										JOINT RightHandPinky2
										{
											OFFSET -4.52789 0.00000 0.00000
											CHANNELS 3 Zrotation Xrotation Yrotation
											JOINT RightHandPinky3
											{
												OFFSET -2.46976 0.00000 0.00000
												CHANNELS 3 Zrotation Xrotation Yrotation
												End site
												{
													OFFSET 0.00000 0.00000 0.00000
												}
											}
										}
									}
								}
							}
						}
					}
					JOINT LeftShoulder
					{
						OFFSET 0.01000 7.91373 5.19711
						CHANNELS 3 Zrotation Xrotation Yrotation
						JOINT LeftArm
						{
							OFFSET 18.41580 0.00000 0.00000
							CHANNELS 3 Zrotation Xrotation Yrotation
							JOINT LeftForeArm
							{
								OFFSET 29.11090 0.00000 0.00000
								CHANNELS 3 Zrotation Xrotation Yrotation
								JOINT LeftHand
								{
									OFFSET 24.65040 0.00000 0.00000
									CHANNELS 3 Zrotation Xrotation Yrotation
									JOINT LeftHandThumb1
									{
										OFFSET 5.35114 -0.85590 3.97906
										CHANNELS 3 Zrotation Xrotation Yrotation
										JOINT LeftHandThumb2
										{
											OFFSET 4.52789 0.00000 0.00000
											CHANNELS 3 Zrotation Xrotation Yrotation
											JOINT LeftHandThumb3
											{
												OFFSET 2.46977 0.00000 0.00000
												CHANNELS 3 Zrotation Xrotation Yrotation
												End site
												{
													OFFSET 0.00000 0.00000 0.00000
												}
											}
										}
									}
									JOINT LeftHandIndex1
									{
										OFFSET 14.26970 0.00000 2.88139
										CHANNELS 3 Zrotation Xrotation Yrotation
										JOINT LeftHandIndex2
										{
											OFFSET 5.48836 0.00000 0.00000
											CHANNELS 3 Zrotation Xrotation Yrotation
											JOINT LeftHandIndex3
											{
												OFFSET 3.01859 0.00000 0.00000
												CHANNELS 3 Zrotation Xrotation Yrotation
												End site
												{
													OFFSET 0.00000 0.00000 0.00000
												}
											}
										}
									}
									JOINT LeftHandMiddle1
									{
										OFFSET 14.26970 0.00000 -0.09147
										CHANNELS 3 Zrotation Xrotation Yrotation
										JOINT LeftHandMiddle2
										{
											OFFSET 6.17440 0.00000 0.00000
											CHANNELS 3 Zrotation Xrotation Yrotation
											JOINT LeftHandMiddle3
											{
												OFFSET 3.56744 0.00000 0.00000
												CHANNELS 3 Zrotation Xrotation Yrotation
												End site
												{
													OFFSET 0.00000 0.00000 0.00000
												}
											}
										}
									}
									JOINT LeftHandRing1
									{
										OFFSET 12.69180 0.00000 -3.06433
										CHANNELS 3 Zrotation Xrotation Yrotation
										JOINT LeftHandRing2
										{
											OFFSET 5.62556 0.00000 0.00000
											CHANNELS 3 Zrotation Xrotation Yrotation
											JOINT LeftHandRing3
											{
												OFFSET 3.56744 0.00000 0.00000
												CHANNELS 3 Zrotation Xrotation Yrotation
												End site
												{
													OFFSET 0.00000 0.00000 0.00000
												}
											}
										}
									}
									JOINT LeftHandPinky1
									{
										OFFSET 11.11390 0.00000 -6.03719
										CHANNELS 3 Zrotation Xrotation Yrotation
										JOINT LeftHandPinky2
										{
											OFFSET 4.52789 0.00000 0.00000
											CHANNELS 3 Zrotation Xrotation Yrotation
											JOINT LeftHandPinky3
											{
												OFFSET 2.46976 0.00000 0.00000
												CHANNELS 3 Zrotation Xrotation Yrotation
												End site
												{
													OFFSET 0.00000 0.00000 0.00000
												}
											}
										}
									}
								}
							}
						}
					}
					JOINT pCube4
					{
						OFFSET 0.00000 10.91090 1.10792
						CHANNELS 3 Zrotation Xrotation Yrotation
						End site
						{
							OFFSET 0.00000 0.00000 0.00000
						}
					}
				}
			}
		}
	}
	JOINT RightUpLeg
	{
		OFFSET -9.98441 0.00000 0.00000
		CHANNELS 3 Zrotation Xrotation Yrotation
		JOINT RightLeg
		{
			OFFSET 0.00000 -42.11790 0.00000
			CHANNELS 3 Zrotation Xrotation Yrotation
			JOINT RightFoot
			{
				OFFSET 0.00000 -45.00020 -0.00001
				CHANNELS 3 Zrotation Xrotation Yrotation
				JOINT RightForeFoot
				{
					OFFSET 0.00000 -3.74820 0.00000
					CHANNELS 3 Zrotation Xrotation Yrotation
					JOINT RightToeBase
					{
						OFFSET 0.00000 0.06325 14.43120
						CHANNELS 3 Zrotation Xrotation Yrotation
						End site
						{
							OFFSET 0.00000 0.00000 0.00000
						}
					}
				}
			}
		}
	}
	JOINT LeftUpLeg
	{
		OFFSET 9.98441 0.00000 0.00000
		CHANNELS 3 Zrotation Xrotation Yrotation
		JOINT LeftLeg
		{
			OFFSET 0.00000 -42.11800 0.00000
			CHANNELS 3 Zrotation Xrotation Yrotation
			JOINT LeftFoot
			{
				OFFSET 0.00000 -45.00070 0.00000
				CHANNELS 3 Zrotation Xrotation Yrotation
				JOINT LeftForeFoot
				{
					OFFSET 0.00000 -3.74824 0.00000
					CHANNELS 3 Zrotation Xrotation Yrotation
					JOINT LeftToeBase
					{
						OFFSET 0.00000 0.06325 14.43110
						CHANNELS 3 Zrotation Xrotation Yrotation
						End site
						{
							OFFSET 0.00000 0.00000 0.00000
						}
					}
				}
			}
		}
	}
}
MOTION
Frames: 4
Frame Time: 0.050000
-0.02852209708709697 -0.048526816817959104 -0.029554832991038327 0.039567738918217944 -0.03601645042523163 0.022982649279394776 -3.3217828735572166 1.4770055569415022 -0.7836032783354117 -0.9728807722022951 3.551916333279403 0.40230600393452487 -1.3062659829713934 -2.4297107105224116 -2.072225376716245 -1.2260448877832744 -0.08720169281822088 -0.9417784253331597 -0.8100546870622749 15.694920335175608 2.0131002982451105 0.2516437983519239 1.128899998927032 4.370894217730742 -0.47374096615586725 -13.629817960188934 0.378694003953742 -11.727123923733686 3.9654761562022385 -11.35277365929909 66.30558603311889 -11.264481084275257 46.22624503125385 24.403921082788774 -2.8330695124533247 97.61121140758708 10.44783889904189 -0.3436798816920311 -0.31263230393518754 4.513833396895864 -0.12662516785132966 -1.5908819643354708 0.02501079179327369 0.032061008296055994 -56.22154390844668 -0.008298093704569826 0.006535695993559831 -56.267640159789764 -38.7760849680067 -0.015746072391489445 0.004468036886925821 -0.023437751484304332 -0.008800744879750261 0.03617035390998045 0.03742815230580821 0.03747167006984471 0.026156904926625327 -36.72864960020432 -0.044432554379503275 -0.0010788805666124537 0.022806282416603808 -0.014959276024390218 -0.010385005159055511 -0.04565361614229202 -0.0387295816084039 -0.022165571887501304 -19.74058099065818 0.0010854989140391368 -0.00016987830596199808 0.037683208402600386 -0.022963343630891777 -0.0036721547142752027 0.0012877766534138164 0.02648194561881759 0.023090753179319804 24.022177587747056 -0.03352427171526493 -0.031140326649534488 28.8943316800913 -0.04478834996935766 0.04070308669142565 28.854608863027565 0.026248541950646853 0.038170747868597636 14.746854355058742 3.3378857449978057 9.755624131529633 -62.844687505239094 5.290638556251983 -51.24063023629864 -53.496008067487 0.8651748718650614 -94.47951920276746 -5.89544312510352 0.47578360761363747 -0.9431244656524798 -0.512782778193097 0.08709545499509759 -8.121054832827138 0.01341969889470452 0.0025684249064288145 44.56094066338625 -0.008858064457064392 -0.0373496178489229 44.59690039569498 12.467669393103323 0.04811760300328598 0.010025333599973197 -0.024329790835367064 0.0053571465414455986 -0.026880667103467478 -0.01753017046946684 0.021466111801986463 0.00788823070291774 11.103039880771677 -0.02505247761036365 0.02009798778750597 0.03584964034833784 -0.014648907990775449 0.04276851185742429 -0.005842586854345426 -0.04738306849967699 -0.023341932568226954 4.797005165450126 -0.01677419594234495 -0.0418129488372348 -0.020629353018427683 0.03093725843387788 -0.01183491566333676 0.04501815194053919 -0.011672223981269903 -0.015104003303287915 -5.607206963320393 0.03814423473308319 0.03992437605003912 -6.676849060517947 -0.033071178133150435 -0.009711819929203417 -6.711718324074315 -0.001311381252181969 0.011700884219780812 -0.04494740572680323 0.029838208778257533 0.011368778446448078 8.01333796614247 3.4964120952496502 -19.212677219534132 0.046896162148105436 10.43007175424495 0.01066552374052422 -5.585405451006087 -15.66679122242628 3.227999300232418 0.003618126626161704 0.014889701447288668 -0.029714016520204563 0.04164247367739666 4.684321624903277 0.008199039628259505 12.416138940877783 -8.270265693372433 6.849344802917794 0.019372092387492348 46.3397218314521 0.013301159039300542 -4.300734966501394 -14.798193961323864 -3.8154095372918304 0.03224358533860222 -0.009857296657949793 -0.016858201053370554 -0.02568810641017786 -10.712568500561174 -0.014782369924694056 
0.03351790082930755 0.0388727587900267 -0.017630078403546596 0.04733444167191253 -0.004889698579302201 -0.04755738659554734 -3.3897459405902652 1.4080104808891394 -0.7302621129165305 -1.0291623965976455 3.6072910043894093 0.3406396777373622 -1.2388435904264568 -2.374428531076433 -2.087285964854414 -1.3265093177722198 -0.08071918481602762 -0.8773975496110029 -0.9240290665187179 15.713875384372852 2.325618523879013 0.26713462088938916 1.3389522332984414 5.1124371534983135 -0.5621039786618316 -13.386882339251471 0.3894656898068461 -11.699416042769172 3.993287243725262 -11.372505273250239 65.66856144726025 -10.717752166558052 45.080484177917974 20.9621530902777 -3.282942376426392 97.8919579440399 10.12634935851209 -0.31634657685945067 -0.4897886155957617 4.510233924235956 -0.13205935078999886 -1.5553419592552693 0.03055640874997792 0.01860722481885874 -56.189039612632996 0.044098382876021164 -0.0487862917895001 -56.228724803882315 -38.75277072067998 -0.034110720348677355 -0.02343090698722861 -0.004537774104097116 0.008742409573829817 -0.03717360605358044 -0.014594676824079476 0.004976430306784524 -0.04207440283793055 -36.65616679094656 0.0063327480193132255 0.04748795461766419 -0.02423824741348729 0.004873482426765491 -0.029146718233817585 -0.008078034758153024 -0.015060779625444966 -0.012230535343775576 -19.807042762838975 -0.02962517081463932 -0.035517168632223026 -0.03518543643720307 0.03231062196713704 0.026100874160341587 -0.03255999383322683 0.004072024580095762 -0.009076681661689815 24.0759489128949 0.011306173295909269 -0.015181446657725469 28.866774801318773 -0.019099703711975093 0.02518032037734628 28.85825318141965 0.04081790226431749 -0.00689908047262145 14.720256010122487 3.332643423951478 9.792867753536125 -62.64909338967915 5.707673740587382 -50.64121025954754 -54.13668602468426 1.3880917198273748 -93.46428051449942 -6.092404307491451 -0.00392219043446318 -0.45558287462000685 -0.4957760631379098 0.02543193921879485 -8.147858767527502 -0.0017875565348432672 -0.007036903537839383 44.5637610702681 0.019824703515593938 0.03380550534302697 44.5812401686777 12.482946489899085 -0.012185003192108832 0.037639929777130855 -0.03816537462264003 -0.04481095497068921 0.041924600696039316 -0.026245910630558675 0.02990811120822099 0.0001481209144940771 11.084108387231696 0.02127799776017679 0.02574784670351094 -0.045388418165037636 0.025835204793013967 -0.02624631117201523 0.013960431387965206 0.047970526232440205 -0.006744510658237105 4.783592775747881 -0.02915555936739838 0.04222127247397266 -0.03161145648050623 -0.04141275320958123 0.04097949053521705 -0.027803906283059593 -0.040987806507841146 -0.02053493506706023 -5.616663822191545 0.004339892636671406 -0.03924733519087381 -6.726471465784757 0.036543853259584105 -0.006345188688146097 -6.699255097638565 0.0015946171670145504 0.01464960020721942 -0.01017254556767162 -0.032155524517144075 -0.043734913363460415 8.051452331697917 3.4704122962019737 -19.19382508756929 0.009386146448533028 10.412033529435668 0.009908241256507428 -5.663290840627419 -15.64528729617115 3.182437845671645 0.02351159171930871 -0.030674330272809507 0.003897570247893583 -0.01765407996749417 4.743235996393178 0.03684693462019023 12.476307805726352 -8.288242957041774 6.904976522242424 0.010937586712957024 46.369951469296545 -0.04753165304774247 -4.296196263773123 -14.749442359043863 -3.81018987321387 0.03263351544709701 0.0005806585628479991 -0.005586236305248703 -0.015685012537007978 -10.697303863090552 -0.007369615651079336 
0.009112150277947212 0.039148378038222666 -0.026421470286892085 -0.02995037607720882 0.01612860635595421 0.015439685813009224 -3.4582958645871926 1.2656628778317394 -0.74420063001747 -1.0672110393680476 3.5426911802923744 0.327414880454734 -1.2633342153143834 -2.4415452727816547 -2.15261901035862 -1.3308194971548852 -0.051978186649312016 -0.9502448286649664 -1.0089016534818454 15.707178060488888 2.6087655822611158 0.31639638127448744 1.4174476442583879 5.880961119680475 -0.6739583680532691 -13.18549634872124 0.5172874217267815 -11.497373093804022 3.8878751723453138 -11.467877504801002 65.05324450670447 -9.746972623813095 43.27302745464248 17.463824558889005 -3.6286656806334565 98.10153310846046 9.888269579081626 -0.37589471317901413 -0.6702606021124504 4.559823877935682 -0.12067523671077125 -1.5974655332283059 -0.011905622747446073 0.04662805136406106 -56.278645596353975 -0.004269577071719278 -0.02886364640850892 -56.22244714989461 -38.73059258788389 0.009587518997861703 -0.03039235517099923 0.03118840398759976 -0.028893904600637853 -0.032676337505968926 0.02297364923232348 -0.010647549836908774 0.008731554689943131 -36.69342507979699 -0.03375435637474269 -0.025638535318995348 -0.008995208458536345 0.0036010070868809116 0.028957429876594748 -0.04000207203799622 -0.013172051447671472 -0.021973025717877032 -19.723966234660434 -0.030022540522918053 -0.02039389488960604 -0.01830823823329622 0.034005355776361414 0.04894260822880639 0.021258299081538614 -0.02828394912628806 -0.028098439777376746 24.01991632471977 -0.039032097772352836 0.026575833167247872 28.836890470938602 -0.026715364602088468 -0.03353439624767269 28.886115146501307 0.03416019142598045 0.030035009302505116 14.602796033886177 3.3152571095604437 9.874665618904409 -62.52492569747108 6.417549143670188 -49.65832866578769 -56.18892391039398 2.3926986239794203 -92.41292972022715 -5.983827884939432 -0.3571850880962133 0.11040194501589246 -0.4893695661927917 0.07139357283400016 -8.16255083696897 0.0016182771581772146 -0.021961874489174013 44.61349262372978 0.04331982868160648 -0.044065272804434875 44.55922360957092 12.464506872488762 0.0020804685216366478 0.007617315469070293 -0.03540438108103277 0.013823120928407205 0.033909000227455875 -0.020422858955128825 -0.006373131391265944 0.03148377651845095 11.120835572385324 0.030535535178586662 0.040299403177132244 -0.02271348837303743 0.0098616706360546 0.01581810462514641 0.015916432104504035 -0.03222831800828408 0.030443556211630682 4.726303249626389 0.00982514636599051 -0.02782939438757602 0.012175974197000493 0.040853592400622155 -0.01613656310894687 -0.01919443301533077 -0.048978044578222996 -0.014525634309618118 -5.564819959971581 -0.009072095918296802 -0.031751010623160575 -6.751902462625422 -0.0028422556390611314 0.030285705028942716 -6.716240942324128 0.02291419187873228 0.0006537745100415532 -0.008022011810073323 -0.017178439030496727 0.04856124622735397 8.013234255087086 3.4788973698032124 -19.251403254092068 0.044321253716654886 10.391652731106028 0.06244403340113584 -5.63232439389059 -15.631086668358156 3.2301708961386457 -0.01982161174335795 -0.00331996626425546 0.03292520595017974 0.03376075921814093 4.696555806551078 -0.007583230686771299 12.424961574684966 -8.229626819506155 6.90950481910072 -0.014923905251218554 46.42042913949998 -0.002359754562527898 -4.344086613134757 -14.78112132412314 -3.8744407963579355 -0.03066546219922453 -0.04508504732408931 -0.029011288699857554 -0.03994345730185159 -10.793013380987313 0.036135470396980514 
0.023833337580822345 0.017685063852092887 -0.01713361220917718 -0.0358574936521557 -0.02650270222751838 0.003807150379030973 -3.5739578472020557 1.1814992258970491 -0.7463668012594 -1.057978499389895 3.5663144689416444 0.3664551000160474 -1.3147467307351353 -2.4238211049822915 -2.252174852605974 -1.2770309526459787 0.006586524562792632 -0.9326277506670949 -1.0094719131975107 15.72864799957016 2.7695549978299034 0.32336429514345705 1.5487262545617118 6.31621785302871 -0.6879075520600713 -12.944309446446987 0.5453244315039807 -11.339681714804119 3.8956833501826815 -11.66351187969421 64.11875504308833 -9.122862354463047 41.45445957714629 14.385819684229833 -4.008740140235169 98.6817800501832 9.7037745795902 -0.4313709534079655 -0.7910197962821424 4.548918820443693 -0.09259758838988025 -1.6124754561092398 -0.040687899338910774 -0.049648574665843416 -56.225824750885494 -0.027048896913082404 0.002720873434779947 -56.2396040719953 -38.757347561843 0.038773753167996694 0.021435225362478 0.02797406480324661 -0.0325244008260609 -0.0198570246217237 0.02392665449448235 0.039336630088677854 -0.030058165276304855 -36.694724325746485 -0.025007618205688077 -0.024193668535692915 -0.017173299574266117 0.02728153571522585 0.008281728422899419 0.0271974071468797 -0.02529005011891461 0.01347107700001829 -19.805749263209815 0.03514227012457488 -0.03851829135793604 -0.04966186766455852 0.0344357900622622 -0.0062258535122743435 0.01729847291556287 0.024704494636013718 0.001105693874343892 24.007027287086565 0.0008419039996940669 0.03768404159312184 28.908633335283024 0.029162596691271605 0.04727876762941393 28.82439763917525 -0.022476146417338087 -0.007093456127250182 14.448504474744075 3.2273727948524025 9.99924271583062 -62.41658933341429 7.066535067041445 -48.41465918649712 -58.5585273523493 3.7464222711786035 -91.70908230328665 -5.614769472730173 -0.600836935612542 0.39005483868886126 -0.5213866390677736 0.05975324527772452 -8.106688084018243 -0.04750571513075625 0.03819448233433229 44.6087061360757 -0.020228193730043736 -0.016877729629936004 44.5791070069815 12.476415605640929 -0.0018441051442970784 0.010295207752053438 0.03235554471585904 -0.022576104907604352 0.028892470307499668 -0.010694243829269586 0.04899789330333572 -0.013524304513493004 11.129959634530438 0.009437333666214616 -0.025387516030611755 -0.005425798586075553 0.024877809757879604 -0.027446226418606327 -0.027986141201757082 0.004651528324407442 -0.03895429918171424 4.7517602360243245 0.033642729259668616 0.001544347064183706 0.04521741359540289 0.008676172743644702 -0.038749354595371634 -0.03705025650025933 -0.02685423545420375 -0.004169724959424168 -5.577010637203409 -0.036665818550896165 -0.014836241148715066 -6.76630832166978 -0.017295851589514584 0.005081312962789753 -6.712031766059823 0.02725994970877949 0.001940895179780644 -0.02654829964082052 0.007847886173076019 -0.025127175275141484 8.065782291620632 3.4570469799115524 -19.268805663479668 -0.005795322790384575 10.424024459631768 0.010878999609992028 -5.621795201175504 -15.663301199944666 3.221510343594948 -0.03278171471954502 0.005833090041044509 0.0035384564842066064 0.010046096832838101 4.72759592682427 -0.03649673442083237 12.470414334458301 -8.20736274356251 6.929314258462101 -0.011796829920017276 46.362581882371046 -0.0458978117315135 -4.365645282004743 -14.717762903583726 -3.8213045167484836 -0.030037441946163396 0.018369039407129507 0.04807873639912525 -0.028393998071710325 -10.746264174524367 0.007842254850010829 
